<?xml version="1.0" encoding="utf-8"?>
<svg viewBox="91.829 144.971 318.405 220.465" width="318.405" height="220.465" xmlns="http://www.w3.org/2000/svg">
  <path d="M 75.108 197.694 C 58.173 197.068 50.12 196.464 47.666 195.638 C 44.963 194.727 42.097 193.052 39.83 191.057 C 37.538 189.04 34.792 184.793 33.958 181.977 C 32.663 177.599 31.493 161.128 31.493 147.27 C 31.493 134.183 32.648 117.127 33.815 112.976 C 35.715 106.222 42.308 99.946 49.113 98.413 C 50.349 98.135 54.764 97.735 58.924 97.525 C 63.085 97.316 67.676 97.065 69.127 96.967 C 77.743 96.39 106.507 96.091 121.152 96.427 C 147.502 97.032 159.268 97.729 162.54 98.879 C 168.569 100.997 173.76 106.196 175.898 112.257 C 176.84 114.926 177.954 128.043 178.378 141.467 C 178.702 151.715 177.605 173.419 176.424 180.157 C 175.121 187.583 167.021 195.26 159.369 196.32 C 156.54 196.712 146.34 197.256 132.631 197.748 C 121.479 198.148 86.475 198.115 75.108 197.695 L 75.108 197.694 Z M 139.146 187.011 C 141.3 185.898 141.669 183.092 139.872 181.487 L 138.776 180.508 L 104.984 180.508 C 82.48 180.508 70.966 180.629 70.515 180.87 C 69.463 181.433 68.681 183.238 68.926 184.539 C 69.134 185.65 70.194 186.913 71.238 187.294 C 71.528 187.4 86.695 187.5 104.942 187.515 C 133.882 187.539 138.25 187.475 139.146 187.011 Z M 156.677 172.584 C 157.258 172.096 157.835 171.232 157.96 170.666 C 158.252 169.335 157.332 167.369 156.169 166.839 C 155.524 166.546 141.761 166.439 104.617 166.439 L 53.944 166.439 L 52.915 167.467 C 51.29 169.092 51.678 171.87 53.685 172.982 C 54.371 173.363 63.792 173.451 105.073 173.461 L 155.62 173.473 L 156.677 172.584 Z" stroke-width=".35178" style="fill: rgb(255, 255, 255);" transform="matrix(2.166868, 0, 0, 2.166868, 23.587714, -63.66833)"/>
</svg>