<?xml version="1.0" encoding="utf-8"?>
<svg viewBox="29.469 20.675 215.8 259" width="215.8" height="259" xmlns="http://www.w3.org/2000/svg">
  <path class="st0" d="M 242.069 23.875 C 239.969 21.775 237.369 20.675 234.469 20.675 L 40.269 20.675 C 37.369 20.675 34.769 21.775 32.669 23.875 C 30.569 25.975 29.469 28.575 29.469 31.475 L 29.469 160.975 C 29.469 170.675 31.369 180.175 35.069 189.675 C 38.869 199.175 43.469 207.575 49.069 214.975 C 54.669 222.375 61.269 229.475 68.969 236.475 C 76.669 243.475 83.769 249.275 90.269 253.875 C 96.769 258.475 103.569 262.875 110.669 266.975 C 117.769 271.075 122.769 273.875 125.769 275.275 C 128.769 276.775 131.169 277.875 132.969 278.675 C 134.269 279.375 135.769 279.675 137.369 279.675 C 138.969 279.675 140.369 279.375 141.769 278.675 C 143.569 277.875 145.969 276.775 148.969 275.275 C 151.969 273.775 156.969 271.075 164.069 266.975 C 171.169 262.875 177.969 258.475 184.469 253.875 C 190.969 249.275 198.069 243.475 205.769 236.475 C 213.469 229.475 220.069 222.375 225.669 214.975 C 231.269 207.575 235.869 199.175 239.669 189.675 C 243.469 180.175 245.269 170.575 245.269 160.975 L 245.269 31.475 C 245.269 28.575 244.169 26.075 242.069 23.875 Z M 217.069 162.175 C 217.069 209.075 137.469 249.375 137.469 249.375 L 137.469 48.375 L 217.069 48.375 C 217.069 48.475 217.069 115.275 217.069 162.175 Z" style="fill: rgb(23, 93, 220);"/>
</svg>