<?xml version="1.0" encoding="utf-8"?>
<svg viewBox="131.341 52.58 234 256" width="234" height="256" xmlns="http://www.w3.org/2000/svg">
  <g transform="matrix(1.000001, 0, 0, 1.000001, 120.840933, 53.079813)">
    <path style="opacity: 0.977; fill: rgb(255, 255, 255);" d="M 111.5 -0.5 C 121.833 -0.5 132.167 -0.5 142.5 -0.5 C 150.475 1.101 158.475 3.101 166.5 5.5 C 167.496 11.463 167.829 17.463 167.5 23.5 C 189.372 28.021 209.872 36.021 229 47.5 C 234.498 116.814 239.665 186.147 244.5 255.5 C 231.833 255.5 219.167 255.5 206.5 255.5 C 206.183 216.209 202.683 177.209 196 138.5 C 194.301 137.594 192.467 137.261 190.5 137.5 C 190.5 152.833 190.5 168.167 190.5 183.5 C 181.881 185.424 173.215 187.09 164.5 188.5 C 164.5 191.5 164.5 194.5 164.5 197.5 C 173.167 195.833 181.833 194.167 190.5 192.5 C 190.82 203.415 190.487 214.248 189.5 225 C 171.497 235.168 152.163 240.668 131.5 241.5 C 131.5 166.5 131.5 91.5 131.5 16.5 C 139.073 16.738 146.407 15.571 153.5 13 C 154.833 12 154.833 11 153.5 10 C 149.653 8.384 145.653 7.384 141.5 7 C 128.388 5.9 115.388 6.567 102.5 9 C 98.5 10.667 98.5 12.333 102.5 14 C 109.3 15.645 116.133 16.811 123 17.5 C 123.667 91.833 123.667 166.167 123 240.5 C 102.762 240.147 83.595 235.147 65.5 225.5 C 64.475 214.193 64.474 205.345 65.5 192.5 C 73.141 194.295 80.808 195.961 88.5 197.5 C 89.484 194.572 89.817 191.572 89.5 188.5 C 81.398 187.346 73.398 185.68 65.5 183.5 C 64.501 168.181 64.167 152.848 64.5 137.5 C 62.5 137.5 60.5 137.5 58.5 137.5 C 51.476 176.501 48.143 215.834 48.5 255.5 C 35.833 255.5 23.167 255.5 10.5 255.5 C 14.957 186.145 19.79 116.811 25 47.5 C 44.191 36.158 64.691 27.992 86.5 23 C 87.147 17.22 87.814 11.387 88.5 5.5 C 96.166 3.001 103.833 1.001 111.5 -0.5 Z"/>
  </g>
</svg>