<?xml version="1.0" encoding="utf-8"?>
<svg viewBox="114.813 75.314 172.425 253.967" width="172.425" height="253.967" xmlns="http://www.w3.org/2000/svg">
  <g transform="matrix(0.143687, 0, 0, 0.143687, 114.884577, 75.457541)" style="">
    <path style="opacity: 0.987; fill-rule: evenodd; fill: rgb(11, 176, 11);" d="M 35.5 -0.5 C 49.167 -0.5 62.833 -0.5 76.5 -0.5 C 76.5 0.167 76.833 0.5 77.5 0.5 C 101.483 1.065 125.15 3.398 148.5 7.5 C 172.515 10.421 196.182 15.087 219.5 21.5 C 244.376 28.012 268.376 36.678 291.5 47.5 C 300.656 50.547 309.322 54.547 317.5 59.5 C 337.889 69.585 357.222 81.251 375.5 94.5 C 401.298 112.624 424.631 133.624 445.5 157.5 C 474.552 189.251 498.552 224.585 517.5 263.5 C 545.576 322.902 564.076 385.235 573 450.5 C 575.927 472.771 578.26 495.105 580 517.5 C 581.85 506.749 584.017 496.082 586.5 485.5 C 594.088 451.137 604.755 417.804 618.5 385.5 C 631.728 354.677 648.728 326.343 669.5 300.5 C 689.373 274.289 713.04 252.289 740.5 234.5 C 762.792 219.354 786.792 207.354 812.5 198.5 C 835.537 190.559 859.203 185.559 883.5 183.5 C 905.078 181.228 926.745 180.895 948.5 182.5 C 953.442 251.392 938.276 315.392 903 374.5 C 896.968 383.921 890.468 392.921 883.5 401.5 C 863.672 427.331 840.339 449.331 813.5 467.5 C 791.13 483.695 767.13 497.362 741.5 508.5 C 718.563 518.368 694.896 526.034 670.5 531.5 C 653.556 536.221 636.223 539.554 618.5 541.5 C 608.243 543.092 597.91 544.092 587.5 544.5 C 584.473 545.509 581.473 545.509 578.5 544.5 C 571.672 530.836 563.839 517.836 555 505.5 C 542.715 488.717 529.882 472.384 516.5 456.5 C 493.31 430.163 469.643 404.163 445.5 378.5 C 421.5 355.167 397.833 331.5 374.5 307.5 C 353.868 289.203 333.868 270.203 314.5 250.5 C 306.174 243.507 298.174 236.174 290.5 228.5 C 267.444 207.439 244.111 186.773 220.5 166.5 C 219.833 165.5 212.167 158.333 211.5 159 C 214.036 161.705 216.703 164.205 219.5 166.5 C 219.833 166.5 268.413 212.48 291.5 236.5 C 299.833 244.167 307.833 252.167 315.5 260.5 C 336.269 281.264 355.935 302.93 374.5 325.5 C 400.446 353.77 424.113 383.77 445.5 415.5 C 468.029 444.89 484.529 477.557 495 513.5 C 497.023 523.061 497.857 532.727 497.5 542.5 C 479.59 541.237 461.923 538.57 444.5 534.5 C 420.344 529.545 396.677 522.878 373.5 514.5 C 353.509 507.175 334.175 498.508 315.5 488.5 C 307.181 484.675 299.181 480.342 291.5 475.5 C 265.789 460.118 241.789 442.451 219.5 422.5 C 192.261 399.602 168.595 373.602 148.5 344.5 C 117.842 304.2 94.175 259.866 77.5 211.5 C 58.209 159.899 45.709 106.566 40 51.5 C 38.219 34.174 36.719 16.84 35.5 -0.5 Z"/>
    <path d="M 76.5 -1 L 77.025 -1 L 77 -0.5 C 76.987 -0.245 77.016 -0.191 77.103 -0.103 C 77.191 -0.016 77.245 0.013 77.5 0 L 78 -0.025 C 78 70.308 78 141.167 78 211.5 L 78 214.266 L 77.032 211.675 C 57.731 160.044 45.217 106.648 39.503 51.551 C 37.721 34.221 36.221 16.879 35.001 -0.465 L 34.964 -1 C 48.631 -1 62.833 -1 76.5 -1 Z M 40.497 51.449 C 46.201 106.483 58.268 157.96 77 208.718 C 77 139.32 77 71.116 77 0.925 C 76.761 0.858 76.642 0.849 76.396 0.604 C 76.151 0.358 76.152 0.234 76.082 0 C 62.555 0 49.525 0 36.036 0 C 37.248 17.157 38.717 34.127 40.497 51.449 Z" style="fill: none;"/>
    <path d="M 77.512 0 C 101.513 0.566 125.218 2.903 148.587 7.008 L 149 7.08 C 149 119.413 149 232.167 149 344.5 L 149 345.983 L 148.102 344.803 C 117.423 304.469 93.718 260.065 77.027 211.663 L 77 211.584 C 77 141.251 77 70.833 77 0.5 L 77 -0.012 Z M 78 211.416 C 94.657 259.714 117.799 303.064 148 343.013 C 148 231.18 148 120.253 148 7.92 C 124.803 3.866 101.789 1.597 78 1.012 C 78 71.174 78 141.111 78 211.416 Z" style="fill: none;"/>
    <path d="M 148.56 7.004 C 172.594 9.928 196.297 14.601 219.633 21.018 L 220.004 21.12 L 220 21.505 C 219.67 53.825 220.004 86.163 221 118.5 C 220.999 133.86 220.332 148.883 218.998 163.545 L 218.919 164.418 L 218.208 163.906 C 216.391 162.596 214.702 161.079 213.146 159.354 C 212.878 159.067 212.721 159 212.5 159 C 212.279 159 212.32 159.012 212.234 159.05 C 214.647 161.592 217.033 163.829 219.817 166.113 L 219.997 166.261 L 220 166.494 C 221.045 252.949 221.045 338.288 220 422.506 L 219.987 423.563 L 219.178 422.883 C 191.915 399.962 168.204 373.912 148.089 344.784 L 148 344.656 C 148 232.323 148 119.833 148 7.5 L 148 6.935 Z M 149 344.344 C 169.054 373.366 192.139 398.727 219.013 421.436 C 220.045 337.569 220.045 253.108 219.003 166.738 C 216.258 164.473 213.683 162.058 211.135 159.342 L 210.796 158.981 L 211.146 158.646 C 211.545 158.266 212.055 158 212.5 158 C 212.945 158 213.455 158.266 213.854 158.646 C 215.372 160.335 216.58 161.419 218.082 162.568 C 219.361 148.211 219.999 133.843 220 118.508 C 219.004 86.163 218.666 54.21 218.996 21.88 C 195.816 15.524 172.804 10.987 149 8.065 C 149 120.209 149 232.063 149 344.344 Z" style="fill: none;"/>
    <path d="M 219.627 21.016 C 244.524 27.535 268.567 36.216 291.712 47.047 L 291.998 47.181 L 292 47.497 C 292.332 108.002 291.999 168.342 291 228.508 L 290.982 229.617 L 290.163 228.869 C 267.11 207.811 243.782 187.15 220.174 166.879 L 220.122 166.835 L 220.084 166.777 C 219.417 165.777 218.751 164.777 218.084 163.777 L 217.986 163.631 L 218.002 163.455 C 219.334 148.815 219.999 133.843 220 118.508 C 219.004 86.163 218.67 53.825 219 21.495 L 219.007 20.854 Z M 221 118.485 C 220.999 133.845 220.348 148.707 219.014 163.369 C 219.646 164.317 220.224 165.185 220.878 166.165 C 244.473 186.425 266.96 206.32 290.018 227.383 C 291.003 167.592 291.331 108.212 291.002 47.819 C 267.987 37.068 244.626 28.633 219.994 22.147 C 219.674 54.253 220.004 86.148 221 118.485 Z" style="fill: none;"/>
    <path d="M 291.658 47.026 C 300.84 50.083 309.556 54.106 317.759 59.072 L 318.007 59.223 L 318 59.513 C 316.334 123.003 315.334 186.665 315 250.503 L 314.994 251.568 L 314.178 250.883 C 305.844 243.883 297.828 236.535 290.146 228.854 L 289.997 228.704 L 290 228.492 C 290.999 168.33 291.332 108.002 291 47.503 L 290.996 46.805 Z M 291.003 228.296 C 298.613 235.899 305.688 242.444 314.006 249.43 C 314.345 185.948 315.326 123.273 316.993 59.778 C 308.913 54.907 301.134 51.233 292.004 48.196 C 292.329 108.465 292.002 168.13 291.003 228.296 Z" style="fill: none;"/>
    <path d="M 317.722 59.052 C 338.129 69.147 357.498 80.835 375.793 94.095 L 376.004 94.248 L 376 94.507 C 375.001 165.336 374.667 236.331 375 307.498 L 375.005 308.616 L 374.168 307.874 C 353.53 289.571 333.518 270.56 314.143 250.851 L 313.999 250.704 L 314 250.497 C 314.334 186.655 315.334 122.983 317 59.487 L 317.021 58.705 Z M 315.001 250.296 C 334.315 269.938 353.665 288.321 373.995 306.383 C 373.671 235.588 374 165.5 374.996 94.753 C 356.798 81.578 338.092 70.291 317.979 60.296 C 316.326 123.526 315.336 186.528 315.001 250.296 Z" style="fill: none;"/>
    <path d="M 375.787 94.091 C 401.609 112.234 424.986 133.274 445.876 157.171 L 446 157.312 C 446 230.979 446 304.833 446 378.5 L 446 379.683 L 445.151 378.859 C 421.149 355.523 397.477 331.851 374.142 307.849 L 374.001 307.704 L 374 307.502 C 373.667 236.331 374.001 165.326 375 94.493 L 375.013 93.547 Z M 374.999 307.296 C 398.282 331.242 421.293 354.253 445 377.316 C 445 304.046 445 231.355 445 157.688 C 424.184 133.892 401.454 113.435 375.987 95.454 C 374.998 165.967 374.666 236.129 374.999 307.296 Z" style="fill: none;"/>
    <path d="M 445.869 157.162 C 474.943 188.942 498.984 224.335 517.95 263.281 L 518.002 263.388 L 518 263.508 C 517.001 327.67 516.668 391.998 517 456.497 L 517.007 457.832 L 516.125 456.83 C 492.937 430.496 469.276 404.503 445.136 378.843 L 445 378.698 C 445 305.031 445 231.167 445 157.5 L 445 156.213 Z M 446 378.302 C 470.095 403.917 492.8 428.828 515.993 455.168 C 515.673 391.112 515.999 327.779 516.998 263.612 C 498.076 224.77 474.639 190.266 446 158.79 C 446 232.025 446 304.635 446 378.302 Z" style="fill: none;"/>
    <path d="M 220.5 166 L 220.697 166 L 220.841 166.135 C 245.092 188.786 268.769 212.129 291.86 236.154 L 292 236.299 C 292 315.966 292 395.833 292 475.5 L 292 476.382 L 291.243 475.929 C 265.512 460.534 241.474 442.839 219.167 422.873 L 218.997 422.721 L 219 422.494 C 220.045 338.282 220.045 252.955 219 166.506 L 218.994 166 C 219.327 166 220.167 166 220.5 166 Z M 220.003 422.279 C 242.223 442.151 265.595 459.355 291 474.617 C 291 395.246 291 316.368 291 236.701 C 267.962 212.738 244.494 189.6 220.303 167 C 220.035 167 220.339 167 220.006 167 C 221.045 253.281 221.045 338.135 220.003 422.279 Z" style="fill: none;"/>
    <path d="M 883 183.5 L 883 183.05 L 883.448 183.003 C 905.048 180.729 926.76 180.396 948.537 182.001 L 948.968 182.033 L 948.999 182.464 C 953.935 251.432 938.726 315.591 903.421 374.77 C 897.381 384.202 890.865 393.225 883.888 401.815 L 883 402.909 C 883 330.242 883 256.167 883 183.5 Z M 902.575 374.237 C 937.819 315.201 952.98 251.784 948.032 182.967 C 926.448 181.399 905.407 181.722 884 183.95 C 884 256.467 884 327.89 884 400.086 C 890.623 391.851 896.552 383.644 902.575 374.237 Z" style="fill: none;"/>
    <path d="M 884 401.5 L 884 401.67 L 883.897 401.804 C 864.042 427.665 840.651 449.72 813.78 467.914 L 813.01 468.435 L 813 467.506 C 812.001 378.006 811.667 288.335 812 198.498 L 812.001 198.143 L 812.337 198.027 C 835.404 190.078 859.13 185.065 883.458 183.002 L 884 182.956 C 884 255.623 884 328.833 884 401.5 Z M 812.999 198.857 C 812.668 288.569 812.991 377.067 813.99 466.563 C 840.472 448.522 863.221 427.073 883 401.33 C 883 328.72 883 256.53 883 184.045 C 858.928 186.126 835.9 190.992 812.999 198.857 Z" style="fill: none;"/>
    <path d="M 813 198.502 C 812.667 288.335 813.001 377.998 814 467.494 L 814.003 467.753 L 813.793 467.905 C 791.4 484.115 767.353 497.809 741.699 508.959 L 740.997 509.264 L 741 508.498 C 741.333 416.998 740.999 325.669 740 234.505 L 739.997 234.237 L 740.219 234.086 C 762.54 218.924 786.599 206.894 812.337 198.027 L 813.003 197.798 Z M 741.003 234.763 C 742 325.839 742.336 416.232 742.003 507.736 C 767.342 496.667 790.71 483.361 812.997 467.247 C 812 377.833 811.669 288.804 811.997 199.203 C 786.574 208.02 763.203 219.705 741.003 234.763 Z" style="fill: none;"/>
    <path d="M 741 234.495 C 741.999 325.661 742.333 416.998 742 508.502 L 741.999 508.83 L 741.698 508.959 C 718.739 518.835 695.028 526.516 670.609 531.988 L 669.997 532.125 L 670 531.498 C 670.333 454.332 669.999 377.336 669 300.507 L 668.998 300.335 L 669.102 300.198 C 689.004 273.955 712.734 251.896 740.228 234.08 L 740.99 233.587 Z M 670.002 300.665 C 670.999 377.442 671.336 453.704 671.003 530.875 C 695.156 525.425 718.18 517.968 741.001 508.17 C 741.332 416.78 741.009 326.578 740.01 235.415 C 712.91 253.088 689.825 274.547 670.002 300.665 Z" style="fill: none;"/>
    <path d="M 291.839 236.132 C 300.179 243.806 308.194 251.821 315.868 260.161 L 316 260.305 C 316 336.305 316 412.5 316 488.5 L 316 489.28 L 315.291 488.954 C 306.958 485.122 298.929 480.773 291.233 475.923 L 291 475.776 C 291 396.109 291 316.167 291 236.5 L 291 235.36 Z M 292 475.224 C 299.586 479.993 306.951 483.982 315 487.718 C 315 411.98 315 336.695 315 260.695 C 307.38 252.421 300.024 245.065 292 237.642 C 292 316.926 292 395.649 292 475.224 Z" style="fill: none;"/>
    <path d="M 315.854 260.146 C 336.631 280.919 356.313 302.603 374.886 325.182 L 374.999 325.32 L 375 325.497 C 375.329 388.571 374.996 451.576 374 514.508 L 373.989 515.212 L 373.328 514.969 C 353.321 507.638 333.955 498.956 315.264 488.941 L 315 488.799 C 315 412.799 315 336.5 315 260.5 L 315 259.293 Z M 316 488.201 C 334.573 498.139 353.271 506.521 373.011 513.788 C 373.999 451.097 374.328 388.689 374.001 325.68 C 355.477 303.169 336.446 282.203 316 261.708 C 316 337.303 316 412.3 316 488.201 Z" style="fill: none;"/>
    <path d="M 517.952 263.286 C 546.042 322.724 564.564 385.133 573.496 450.435 C 576.424 472.712 578.484 492.454 580.188 513.543 C 581.884 504.093 583.529 495.975 586.013 485.386 L 586.819 481.951 L 586.999 485.474 C 587.997 504.976 588.33 524.66 588 544.508 L 587.994 544.864 L 587.658 544.974 C 584.552 545.996 581.393 545.996 578.339 544.973 L 578.145 544.908 L 578.053 544.724 C 571.234 531.077 563.423 518.112 554.595 505.793 C 542.315 489.017 529.494 472.7 516.118 456.822 L 516.001 456.684 L 516 456.503 C 515.668 391.998 516.001 327.66 517 263.492 L 517.034 261.343 Z M 516.999 456.316 C 530.344 472.163 543.113 488.415 555.403 505.205 C 564.253 517.557 572.039 530.478 578.855 544.092 C 581.666 545.027 584.058 545.131 587.006 544.135 C 587.327 524.453 587.036 507.425 586.177 489.118 C 584.032 498.541 582.341 506.841 580.493 517.585 L 579.812 521.539 L 579.502 517.539 C 577.762 495.15 575.431 472.831 572.504 450.566 C 563.588 385.339 545.514 324.444 517.967 265.665 C 516.994 329.108 516.667 391.817 516.999 456.316 Z" style="fill: none;"/>
    <path d="M 670 300.494 C 670.999 377.328 671.333 454.332 671 531.502 L 670.998 531.88 L 670.634 531.982 C 653.67 536.707 636.298 540.048 618.555 541.997 L 617.986 542.06 L 618 541.487 C 619.33 489.396 619.33 437.408 618 385.513 L 617.997 385.403 L 618.041 385.303 C 631.284 354.45 648.319 326.058 669.11 300.187 L 669.982 299.102 Z M 619.003 385.597 C 620.33 437.468 620.344 488.836 619.014 540.94 C 636.514 538.99 653.194 535.782 670.002 531.12 C 670.332 454.08 670.017 378.732 669.018 301.902 C 648.663 327.421 632.209 354.843 619.003 385.597 Z" style="fill: none;"/>
    <path d="M 374.868 325.162 C 400.826 353.446 424.517 383.475 445.915 415.221 L 445.999 415.345 L 446 415.496 C 446.327 455.239 445.994 494.914 445 534.513 L 444.985 535.11 L 444.4 534.99 C 420.226 530.031 396.524 523.354 373.33 514.97 L 372.994 514.849 L 373 514.492 C 373.996 451.566 374.329 388.571 374 325.503 L 373.993 324.208 Z M 374.006 514.151 C 397.054 522.465 420.08 528.952 444.015 533.89 C 444.997 494.5 445.326 455.339 445.001 415.655 C 423.647 383.986 400.598 354.769 375.007 326.793 C 375.324 389.429 375.002 451.219 374.006 514.151 Z" style="fill: none;"/>
    <path d="M 619 385.487 C 620.33 437.396 620.33 489.408 619 541.513 L 618.989 541.93 L 618.577 541.994 C 608.305 543.588 597.944 544.591 587.52 545 L 586.991 545.02 L 587 544.492 C 587.33 524.66 586.997 505.01 586.001 485.526 L 585.997 485.458 L 586.012 485.392 C 593.606 451.007 604.287 417.63 618.04 385.304 L 618.941 383.187 Z M 587.003 485.542 C 587.997 505.02 588.339 524.131 588.009 543.979 C 598.216 543.56 607.904 542.623 618.011 541.07 C 619.33 489.118 619.388 439.722 618.059 387.826 C 604.757 419.44 594.584 451.224 587.003 485.542 Z" style="fill: none;"/>
    <path d="M 445.897 415.196 C 468.451 444.625 485.001 477.411 495.489 513.396 C 497.517 522.988 498.356 532.715 498 542.518 L 497.981 543.035 L 497.465 542.999 C 479.535 541.734 461.829 539.061 444.386 534.987 L 443.99 534.894 L 444 534.487 C 444.994 494.898 445.327 455.239 445 415.504 L 444.988 414.01 Z M 445.01 534.105 C 462.277 538.119 479.128 540.704 497.018 541.964 C 497.328 532.4 496.53 523.147 494.515 513.622 C 484.06 477.729 468.051 446.036 446.012 416.996 C 446.319 456.227 446.004 494.507 445.01 534.105 Z" style="fill: none;"/>
  </g>
  <g transform="matrix(0.143687, 0, 0, 0.143687, 114.884577, 75.457541)" style="">
    <path style="opacity: 0.995; fill-rule: evenodd;" d="M 684.5,578.5 C 686.954,580.663 689.62,581.33 692.5,580.5C 693.167,580.5 693.5,580.833 693.5,581.5C 768.366,616.126 813.866,674.126 830,755.5C 833.653,781.054 834.487,806.721 832.5,832.5C 831.549,833.919 831.216,835.585 831.5,837.5C 831.5,838.167 831.5,838.833 831.5,839.5C 812.648,932.526 757.648,992.693 666.5,1020C 634.721,1029.61 602.388,1032.61 569.5,1029C 541.724,1024.97 514.724,1017.97 488.5,1008C 455.255,994.585 422.255,980.585 389.5,966C 355.534,951.011 320.2,940.678 283.5,935C 269.706,933.131 256.039,932.631 242.5,933.5C 185.312,932.538 133.646,948.705 87.5,982C 46.6685,1015.72 20.3352,1058.55 8.5,1110.5C 7.66175,1110.16 7.32842,1109.49 7.5,1108.5C 9.32533,1098.37 11.6587,1088.37 14.5,1078.5C 27.4457,1040.92 47.279,1007.59 74,978.5C 185.833,866.667 297.667,754.833 409.5,643C 480.43,576.923 563.763,552.923 659.5,571C 668.156,572.833 676.489,575.333 684.5,578.5 Z" fill="#fe0000"/>
  </g>
  <g transform="matrix(0.143687, 0, 0, 0.143687, 114.884577, 75.457541)" style="">
    <path style="opacity: 0.643; fill-rule: evenodd;" d="M 684.5,578.5 C 687.221,578.963 689.888,579.629 692.5,580.5C 689.62,581.33 686.954,580.663 684.5,578.5 Z" fill="#b50100"/>
  </g>
  <g transform="matrix(0.143687, 0, 0, 0.143687, 114.884577, 75.457541)" style="">
    <path style="opacity: 0.997; fill-rule: evenodd;" d="M 693.5,581.5 C 726.607,593.379 756.273,610.879 782.5,634C 899,750.5 1015.5,867 1132,983.5C 1169.1,1025.7 1191.6,1074.7 1199.5,1130.5C 1199.5,1154.17 1199.5,1177.83 1199.5,1201.5C 1197.7,1211.95 1195.37,1222.28 1192.5,1232.5C 1191.08,1234.51 1190.41,1236.85 1190.5,1239.5C 1161.62,1321.64 1104.62,1372.48 1019.5,1392C 997.018,1396.98 974.352,1398.81 951.5,1397.5C 872.784,1392.42 812.617,1356.75 771,1290.5C 731.702,1220.79 725.035,1148.13 751,1072.5C 754.803,1061.42 758.803,1050.42 763,1039.5C 779.552,1001.73 795.552,963.73 811,925.5C 821.614,897.712 828.447,869.045 831.5,839.5C 831.5,838.833 831.5,838.167 831.5,837.5C 832.451,836.081 832.784,834.415 832.5,832.5C 834.487,806.721 833.653,781.054 830,755.5C 813.866,674.126 768.366,616.126 693.5,581.5 Z" fill="#980100"/>
  </g>
  <g transform="matrix(0.143687, 0, 0, 0.143687, 114.884577, 75.457541)" style="">
    <path style="opacity: 0.997; fill-rule: evenodd;" d="M 242.5,933.5 C 326.831,937.389 390.331,975.389 433,1047.5C 469.558,1116.18 474.891,1187.18 449,1260.5C 434.562,1299.81 418.562,1338.48 401,1376.5C 385.268,1412.03 374.602,1449.03 369,1487.5C 367.991,1496.14 367.491,1504.81 367.5,1513.5C 364.392,1582.68 385.225,1643.35 430,1695.5C 455.885,1722.36 486.385,1742.02 521.5,1754.5C 483.766,1743.64 450.1,1725.47 420.5,1700C 302.496,1582 184.329,1463.83 66,1345.5C 27.6627,1300.48 5.49602,1248.48 -0.5,1189.5C -0.5,1173.5 -0.5,1157.5 -0.5,1141.5C 1.82161,1119.88 6.82161,1098.88 14.5,1078.5C 11.6587,1088.37 9.32533,1098.37 7.5,1108.5C 3.48844,1121.75 1.65511,1135.42 2,1149.5C 3.30619,1136.33 5.47286,1123.33 8.5,1110.5C 20.3352,1058.55 46.6685,1015.72 87.5,982C 133.646,948.705 185.312,932.538 242.5,933.5 Z" fill="#980100"/>
  </g>
  <g transform="matrix(0.143687, 0, 0, 0.143687, 114.884577, 75.457541)" style="">
    <path style="opacity: 1; fill-rule: evenodd;" d="M 7.5,1108.5 C 7.32842,1109.49 7.66175,1110.16 8.5,1110.5C 5.47286,1123.33 3.30619,1136.33 2,1149.5C 1.65511,1135.42 3.48844,1121.75 7.5,1108.5 Z" fill="#e30000"/>
  </g>
  <g transform="matrix(0.143687, 0, 0, 0.143687, 114.884577, 75.457541)" style="">
    <path style="opacity: 0.004; fill-rule: evenodd;" d="M 1192.5,1232.5 C 1192.59,1235.15 1191.92,1237.49 1190.5,1239.5C 1190.41,1236.85 1191.08,1234.51 1192.5,1232.5 Z" fill="#e30000"/>
  </g>
  <g transform="matrix(0.143687, 0, 0, 0.143687, 114.884577, 75.457541)" style="">
    <path style="opacity: 0.995; fill-rule: evenodd;" d="M 1190.5,1239.5 C 1179.93,1278.31 1161.76,1312.98 1136,1343.5C 1018.17,1462.67 899.667,1581.17 780.5,1699C 733.58,1739.12 679.246,1761.62 617.5,1766.5C 605.833,1766.5 594.167,1766.5 582.5,1766.5C 566.624,1765.14 550.957,1762.47 535.5,1758.5C 533.287,1756.69 530.953,1756.35 528.5,1757.5C 527.833,1757.5 527.5,1757.17 527.5,1756.5C 525.898,1754.93 523.898,1754.26 521.5,1754.5C 486.385,1742.02 455.885,1722.36 430,1695.5C 385.225,1643.35 364.392,1582.68 367.5,1513.5C 374.799,1434.7 412.133,1374.87 479.5,1334C 537.653,1302.36 598.986,1293.69 663.5,1308C 681.817,1312.66 699.817,1318.33 717.5,1325C 751.282,1339.06 784.949,1353.39 818.5,1368C 858.365,1385.55 900.031,1395.72 943.5,1398.5C 946.355,1398.5 949.022,1398.16 951.5,1397.5C 974.352,1398.81 997.018,1396.98 1019.5,1392C 1104.62,1372.48 1161.62,1321.64 1190.5,1239.5 Z" fill="#fe0000"/>
  </g>
  <g transform="matrix(0.143687, 0, 0, 0.143687, 114.884577, 75.457541)" style="">
    <path style="opacity: 0.992; fill-rule: evenodd;" d="M 521.5,1754.5 C 523.898,1754.26 525.898,1754.93 527.5,1756.5C 525.214,1756.41 523.214,1755.74 521.5,1754.5 Z" fill="#b20100"/>
  </g>
  <g transform="matrix(0.143687, 0, 0, 0.143687, 114.884577, 75.457541)" style="">
    <path style="opacity: 0.98; fill-rule: evenodd;" d="M 528.5,1757.5 C 530.953,1756.35 533.287,1756.69 535.5,1758.5C 533.139,1758.33 530.806,1757.99 528.5,1757.5 Z" fill="#b80000"/>
  </g>
</svg>