<?xml version="1.0" encoding="utf-8"?>
<svg viewBox="148.131 127.203 221.674 246.925" width="221.674" height="246.925" xmlns="http://www.w3.org/2000/svg">
  <g transform="matrix(1, 0, 0, 1, 131.354919, 123.474335)">
    <path style="opacity: 0.963; fill: rgb(255, 255, 255);" d="M 182.5 99.5 C 163.542 88.902 144.542 78.236 125.5 67.5 C 103.898 55.497 81.898 42.997 59.5 30 C 50.781 26.457 45.615 29.29 44 38.5 C 43.833 45.333 43.667 52.167 43.5 59 C 44.776 113.493 45.443 167.993 45.5 222.5 C 35.665 224.165 26.233 220.72 19.685 213.5 C 18.015 211.032 17.861 209.482 17.685 206.5 C 16.263 152.841 16.912 99.174 17 45.5 C 17.676 35.291 21.176 26.291 27.5 18.5 C 42.792 3.46 60.022 -0.8 80.5 9 C 120.628 32.906 216.839 87.796 225.5 94 C 239.472 109.366 242.138 126.533 233.5 145.5 C 231.537 135.768 226.871 127.602 219.5 121 C 207.467 113.317 195.133 106.15 182.5 99.5 Z"/>
  </g>
  <g transform="matrix(1, 0, 0, 1, 131.354919, 123.474335)">
    <path style="opacity:0.004" fill="#23292d" d="M 27.5,18.5 C 26.8333,17.1667 26.8333,17.1667 27.5,18.5 Z"/>
  </g>
  <g transform="matrix(1, 0, 0, 1, 131.354919, 123.474335)">
    <path style="opacity:0.004" fill="#23292d" d="M 125.5,67.5 C 124.833,68.1667 124.833,68.1667 125.5,67.5 Z"/>
  </g>
  <g transform="matrix(1, 0, 0, 1, 131.354919, 123.474335)">
    <path style="opacity:0.968" fill="#ffc22f" d="M 78.5 74.5 C 109.368 91.741 139.701 109.075 169.5 126.5 C 138.793 144.232 110.934 160.494 80.308 178.096 C 79.355 117.486 79.166 109.314 78.5 74.5 Z"/>
  </g>
  <g transform="matrix(1, 0, 0, 1, 131.354919, 123.474335)">
    <path style="opacity:0.004" fill="#23292d" d="M 182.5,99.5 C 181.833,100.167 181.833,100.167 182.5,99.5 Z"/>
  </g>
  <g transform="matrix(1, 0, 0, 1, 131.354919, 123.474335)">
    <path style="opacity: 0.959; fill: rgb(255, 255, 255);" d="M 220.638 166.638 C 219.766 167.919 217.975 169.354 216.5 170.5 C 171.113 197.509 124.78 224.009 77.5 250 C 57.64 252.701 43.656 247.065 32 232.5 C 31.333 231.833 31.333 231.167 32 230.5 C 43.297 233.971 54.131 232.804 64.5 227 C 116.158 196.864 167.325 166.698 218 136.5 C 225.407 145.988 226.378 156.126 220.638 166.638 Z"/>
  </g>
  <g transform="matrix(1, 0, 0, 1, 131.354919, 123.474335)">
    <path style="opacity:0.004" fill="#23292d" d="M 220.5,166.5 C 221.833,167.167 221.833,167.167 220.5,166.5 Z"/>
  </g>
  <g transform="matrix(1, 0, 0, 1, 131.354919, 123.474335)">
    <path style="opacity:0.004" fill="#23292d" d="M 216.5 170.5 C 217.787 171.996 217.787 171.996 216.5 170.5 Z"/>
  </g>
</svg>