<?xml version="1.0" encoding="UTF-8"?>
<!DOCTYPE svg PUBLIC "-//W3C//DTD SVG 1.1//EN" "http://www.w3.org/Graphics/SVG/1.1/DTD/svg11.dtd">
<svg xmlns="http://www.w3.org/2000/svg" version="1.1" width="1024px" height="1024px" style="shape-rendering:geometricPrecision; text-rendering:geometricPrecision; image-rendering:optimizeQuality; fill-rule:evenodd; clip-rule:evenodd" xmlns:xlink="http://www.w3.org/1999/xlink">
<g><path style="opacity:0.997" fill="#ededed" d="M 831.5,112.5 C 797.062,146.438 762.728,180.605 728.5,215C 693.265,245.616 652.598,265.616 606.5,275C 559.506,283.544 512.173,285.877 464.5,282C 410.672,278.974 361.672,262.308 317.5,232C 309.833,225.667 302.167,219.333 294.5,213C 260.632,178.965 226.632,145.132 192.5,111.5C 285.089,36.6298 391.422,-0.370153 511.5,0.5C 631.93,-0.0305719 738.597,37.3028 831.5,112.5 Z"/></g>
<g><path style="opacity:0.999" fill="#3a3f51" d="M 192.5,111.5 C 226.632,145.132 260.632,178.965 294.5,213C 302.167,219.333 309.833,225.667 317.5,232C 361.672,262.308 410.672,278.974 464.5,282C 512.173,285.877 559.506,283.544 606.5,275C 652.598,265.616 693.265,245.616 728.5,215C 762.728,180.605 797.062,146.438 831.5,112.5C 845.46,124.126 858.794,136.459 871.5,149.5C 827.851,192.481 783.851,235.148 739.5,277.5C 737.016,275.517 734.683,273.35 732.5,271C 731.833,270.333 731.167,270.333 730.5,271C 703.805,297.361 677.472,324.028 651.5,351C 659.333,358.833 667.167,366.667 675,374.5C 700.972,347.528 727.305,320.861 754,294.5C 752.422,290.886 749.922,287.719 746.5,285C 790.673,242.327 834.673,199.494 878.5,156.5C 891.926,169.924 904.26,184.257 915.5,199.5C 879.918,236.583 843.752,273.25 807,309.5C 777.531,339.099 758.531,374.433 750,415.5C 745.362,446.323 743.528,477.323 744.5,508.5C 741.995,557.791 748.495,605.791 764,652.5C 775.189,681.9 791.189,708.233 812,731.5C 844.368,764.035 876.868,796.368 909.5,828.5C 896.88,844.12 883.547,859.12 869.5,873.5C 826.735,827.899 783.401,782.732 739.5,738C 742.35,735.318 745.016,732.484 747.5,729.5C 719.347,701.847 691.347,674.014 663.5,646C 662.833,645.333 662.167,645.333 661.5,646C 654.159,653.993 646.992,661.826 640,669.5C 667.528,697.362 695.361,724.862 723.5,752C 726.606,750.935 729.273,748.935 731.5,746C 732.167,745.333 732.833,745.333 733.5,746C 776.701,790.7 820.034,835.2 863.5,879.5C 850.784,891.883 837.451,903.55 823.5,914.5C 789.34,880.507 755.007,846.674 720.5,813C 680.702,777.606 634.035,757.939 580.5,754C 529.771,750.177 479.104,750.844 428.5,756C 382.769,762.375 342.435,780.375 307.5,810C 271.66,845.007 235.993,880.174 200.5,915.5C 184.923,903.925 170.256,891.259 156.5,877.5C 198.605,834.895 240.938,792.395 283.5,750C 284.5,749.333 285.5,749.333 286.5,750C 288.727,752.935 291.394,754.935 294.5,756C 320.136,728.696 346.136,701.696 372.5,675C 365.025,667.436 357.358,660.103 349.5,653C 348.833,652.333 348.167,652.333 347.5,653C 321.864,680.304 295.864,707.304 269.5,734C 272.922,736.719 275.422,739.886 277,743.5C 234.632,786.035 192.132,828.368 149.5,870.5C 136.418,858.088 124.418,844.754 113.5,830.5C 147.105,796.395 180.938,762.395 215,728.5C 245.82,692.784 265.154,651.451 273,604.5C 282.516,541.314 281.516,478.314 270,415.5C 260.133,371.09 239.8,332.423 209,299.5C 175.639,265.805 141.972,232.472 108,199.5C 107.536,198.906 107.369,198.239 107.5,197.5C 117.762,183.002 129.429,169.669 142.5,157.5C 186.465,200.965 230.299,244.632 274,288.5C 272.935,291.606 270.935,294.273 268,296.5C 267.333,297.167 267.333,297.833 268,298.5C 294.667,325.167 321.333,351.833 348,378.5C 355.698,371.136 363.031,363.47 370,355.5C 370.667,354.833 370.667,354.167 370,353.5C 343.833,327.333 317.667,301.167 291.5,275C 288.394,276.065 285.727,278.065 283.5,281C 282.5,281.667 281.5,281.667 280.5,281C 236.965,237.299 193.299,193.799 149.5,150.5C 162.91,136.42 177.244,123.42 192.5,111.5 Z"/></g>
<g><path style="opacity:0.999" fill="#01cafc" d="M 871.5,149.5 C 874.167,151.5 876.5,153.833 878.5,156.5C 834.673,199.494 790.673,242.327 746.5,285C 749.922,287.719 752.422,290.886 754,294.5C 727.305,320.861 700.972,347.528 675,374.5C 667.167,366.667 659.333,358.833 651.5,351C 677.472,324.028 703.805,297.361 730.5,271C 731.167,270.333 731.833,270.333 732.5,271C 734.683,273.35 737.016,275.517 739.5,277.5C 783.851,235.148 827.851,192.481 871.5,149.5 Z"/></g>
<g><path style="opacity:1" fill="#01c9fb" d="M 149.5,150.5 C 193.299,193.799 236.965,237.299 280.5,281C 281.5,281.667 282.5,281.667 283.5,281C 285.727,278.065 288.394,276.065 291.5,275C 317.667,301.167 343.833,327.333 370,353.5C 370.667,354.167 370.667,354.833 370,355.5C 363.031,363.47 355.698,371.136 348,378.5C 321.333,351.833 294.667,325.167 268,298.5C 267.333,297.833 267.333,297.167 268,296.5C 270.935,294.273 272.935,291.606 274,288.5C 230.299,244.632 186.465,200.965 142.5,157.5C 144.5,154.833 146.833,152.5 149.5,150.5 Z"/></g>
<g><path style="opacity:0.998" fill="#ededed" d="M 107.5,197.5 C 107.369,198.239 107.536,198.906 108,199.5C 141.972,232.472 175.639,265.805 209,299.5C 239.8,332.423 260.133,371.09 270,415.5C 281.516,478.314 282.516,541.314 273,604.5C 265.154,651.451 245.82,692.784 215,728.5C 180.938,762.395 147.105,796.395 113.5,830.5C 37.3271,738.339 -0.00620588,632.006 1.5,511.5C 0.146037,405.871 28.9794,309.537 88,222.5C 94.3637,213.981 100.864,205.647 107.5,197.5 Z"/></g>
<g><path style="opacity:0.997" fill="#ededed" d="M 915.5,199.5 C 986.009,290.692 1020.68,394.359 1019.5,510.5C 1020.74,630.119 984.077,736.119 909.5,828.5C 876.868,796.368 844.368,764.035 812,731.5C 791.189,708.233 775.189,681.9 764,652.5C 748.495,605.791 741.995,557.791 744.5,508.5C 743.528,477.323 745.362,446.323 750,415.5C 758.531,374.433 777.531,339.099 807,309.5C 843.752,273.25 879.918,236.583 915.5,199.5 Z"/></g>
<g><path style="opacity:1" fill="#00cbfe" d="M 496.5,369.5 C 560.224,366.603 607.391,392.936 638,448.5C 657.468,493.646 655.802,537.979 633,581.5C 593.157,641.461 537.99,662.961 467.5,646C 420.832,629.332 389.665,597.498 374,550.5C 358.273,480.174 380.439,425.674 440.5,387C 458.077,377.194 476.744,371.36 496.5,369.5 Z"/></g>
<g><path style="opacity:0.999" fill="#01cafc" d="M 869.5,873.5 C 867.833,875.833 865.833,877.833 863.5,879.5C 820.034,835.2 776.701,790.7 733.5,746C 732.833,745.333 732.167,745.333 731.5,746C 729.273,748.935 726.606,750.935 723.5,752C 695.361,724.862 667.528,697.362 640,669.5C 646.992,661.826 654.159,653.993 661.5,646C 662.167,645.333 662.833,645.333 663.5,646C 691.347,674.014 719.347,701.847 747.5,729.5C 745.016,732.484 742.35,735.318 739.5,738C 783.401,782.732 826.735,827.899 869.5,873.5 Z"/></g>
<g><path style="opacity:0.999" fill="#00cafd" d="M 156.5,877.5 C 153.833,875.5 151.5,873.167 149.5,870.5C 192.132,828.368 234.632,786.035 277,743.5C 275.422,739.886 272.922,736.719 269.5,734C 295.864,707.304 321.864,680.304 347.5,653C 348.167,652.333 348.833,652.333 349.5,653C 357.358,660.103 365.025,667.436 372.5,675C 346.136,701.696 320.136,728.696 294.5,756C 291.394,754.935 288.727,752.935 286.5,750C 285.5,749.333 284.5,749.333 283.5,750C 240.938,792.395 198.605,834.895 156.5,877.5 Z"/></g>
<g><path style="opacity:0.997" fill="#ededed" d="M 823.5,914.5 C 732.085,985.919 627.918,1021.25 511,1020.5C 394.839,1021.39 291.339,986.393 200.5,915.5C 235.993,880.174 271.66,845.007 307.5,810C 342.435,780.375 382.769,762.375 428.5,756C 479.104,750.844 529.771,750.177 580.5,754C 634.035,757.939 680.702,777.606 720.5,813C 755.007,846.674 789.34,880.507 823.5,914.5 Z"/></g>
</svg>
