<svg width="250" height="250" viewBox="-0.02 0.021 612.68 423.822" fill="none" xmlns="http://www.w3.org/2000/svg">
  <path xmlns="http://www.w3.org/2000/svg"
    d="M319.9 423.3 194.2 421c-40.7-.8-81.5.8-121.4-7.5-60.7-12.4-65-73.2-69.5-124.2-6.2-71.7-3.8-144.7 7.9-215.8C17.8 33.6 43.8 9.8 84 7.2c135.7-9.4 272.3-8.3 407.7-3.9 14.3.4 28.7 2.6 42.8 5.1 69.6 12.2 71.3 81.1 75.8 139.1 4.5 58.6 2.6 117.5-6 175.7-6.9 48.2-20.1 88.6-75.8 92.5-69.8 5.1-138 9.2-208 7.9 0-.3-.4-.3-.6-.3zm-73.9-122c52.6-30.2 104.2-59.9 156.5-89.9-52.7-30.2-104.2-59.9-156.5-89.9z"
    fill="red" />
</svg>